<?xml version="1.0" encoding="utf-8"?>
<!DOCTYPE svg PUBLIC "-//W3C//DTD SVG 1.1//EN" "http://www.w3.org/Graphics/SVG/1.1/DTD/svg11.dtd" [
	<!ENTITY ns_svg "http://www.w3.org/2000/svg">
	<!ENTITY ns_xlink "http://www.w3.org/1999/xlink">
]>
<svg  version="1.1" xmlns="&ns_svg;" xmlns:xlink="&ns_xlink;" width="128" height="128" viewBox="0 0 128 128"
	 style="overflow:visible;enable-background:new 0 0 128 128;" xml:space="preserve">
<path style="opacity:0.2;fill:#545454;" d="M108.938,103.262L108.938,103.262c0,0-7.96,5.52-8.938,6.197
	c-1.612-1.191-3.569-1.867-5.632-1.843c-5.548,0.067-10.205,4.819-10.135,10.55c0.034,2.762,1.161,5.267,3.144,7.037
	c1.962,1.752,4.507,2.557,7.147,2.299c5.227-0.514,9.307-5.146,9.309-10.379c0-0.001-0.006-0.123-0.014-0.268
	c0.822-0.604,9.139-6.709,9.139-6.709c0.792-0.584,1.213-1.562,1.189-2.549c-0.012-0.519-0.146-1.041-0.416-1.511l-1.072-1.87
	c-0.383-0.669-0.979-1.14-1.681-1.322C110.273,102.71,109.548,102.84,108.938,103.262z"/>
<path style="opacity:0.6;fill:#545454;" d="M106.896,98.875c3.428,0,7.095-3.23,7.095-6.827c0-2.374-1.426-4.068-4.015-5.499
	c-2.972-1.641-7.467-2.273-13.358-2.273c-23.768,0-31.38,9.688-31.692,10.096l1.604,0.71l-0.002,0.003
	c0.071-0.092,7.434-9.209,30.09-9.209c5.545,0,9.709,0.748,12.379,2.222c1.948,1.077,2.979,2.312,2.979,3.951
	c0,2.713-2.974,4.827-5.079,4.827V98.875z"/>
<path style="opacity:0.2;fill:#545454;" d="M106.877,99.658c3.438,0.104,7.113-3.014,7.113-6.61c0-2.374-1.43-4.312-4.025-5.821
	c-2.01-1.169-8.456-2.531-13.393-2.683c-23.828-0.727-31.459,8.929-31.772,9.327l1.608,0.759l-0.002,0.003
	c0.072-0.09,7.453-8.981,30.166-8.289c5.56,0.17,9.734,1.045,12.41,2.6c1.954,1.137,2.987,2.404,2.987,4.043
	c0,2.713-2.981,4.736-5.093,4.672V99.658z"/>
<path style="opacity:0.6;fill:#545454;" d="M106.574,97.875c3.402,0,7.041-3.23,7.041-6.827c0-2.374-1.415-4.068-3.984-5.499
	c-2.949-1.641-7.409-2.273-13.256-2.273c-23.586,0-31.141,9.688-31.45,10.096l1.593,0.71l-0.002,0.003
	c0.07-0.092,7.377-9.209,29.859-9.209c5.502,0,9.635,0.748,12.283,2.222c1.935,1.077,2.957,2.312,2.957,3.951
	c0,2.713-3.566,5.07-5.655,5.07L106.574,97.875z"/>
<linearGradient id="XMLID_21_" gradientUnits="userSpaceOnUse" x1="112.0391" y1="90.8652" x2="69.355" y2="90.8652">
	<stop  offset="0.0112" style="stop-color:#E6E6E6"/>
	<stop  offset="0.427" style="stop-color:#FAFAFA"/>
	<stop  offset="1" style="stop-color:#E6E6E6"/>
</linearGradient>
<path style="fill:url(#XMLID_21_);" d="M65.656,93.6c0.312,0.238,0.515-0.109,0.797,0.105c1.636-1.729,9.736-9.029,29.922-9.029
	c5.588,0,9.803,0.768,12.527,2.284c2.191,1.221,3.213,2.614,3.213,4.388c0,2.871-3.293,5.082-5.487,5.371
	c0,0.345,0.4,0.533,0.4,0.936c3.119-0.296,6.087-3.275,6.087-6.307c0-2.114-1.254-3.684-3.727-5.061
	c-2.711-1.509-6.846-2.211-13.014-2.211C75.521,84.076,67.294,91.852,65.656,93.6z"/>
<path style="opacity:0.6;fill:#545454;" d="M113.23,106.935c4.2-1.598,6.273-5.34,5.688-8.523
	c-0.942-5.132-9.085-9.439-21.077-9.439c-17.542,0-29.142,5.371-29.627,5.6l0.853,1.81h-0.001
	c0.115-0.055,11.709-5.409,28.775-5.409c10.805,0,18.332,3.568,19.11,7.802c0.399,2.173-1.175,5.053-4.433,6.292L113.23,106.935z"/>
<path style="opacity:0.6;fill:#545454;" d="M113.23,105.935c4.2-1.598,6.273-5.34,5.688-8.523
	c-0.942-5.132-9.085-9.439-21.077-9.439c-17.542,0-29.142,5.371-29.627,5.6l0.853,1.81h-0.001
	c0.115-0.055,11.709-5.409,28.775-5.409c10.805,0,18.332,3.568,19.11,7.802c0.399,2.173-1.175,5.053-4.433,6.292L113.23,105.935z"/>
<linearGradient id="XMLID_22_" gradientUnits="userSpaceOnUse" x1="112.0391" y1="97.1484" x2="69.355" y2="97.1484">
	<stop  offset="0.0112" style="stop-color:#E6E6E6"/>
	<stop  offset="0.427" style="stop-color:#FAFAFA"/>
	<stop  offset="1" style="stop-color:#E6E6E6"/>
</linearGradient>
<path style="fill:url(#XMLID_22_);" d="M68.685,94.121c0.163,0.344,0.27,0.572,0.428,0.907c2.265-0.964,13.199-5.257,28.53-5.257
	c10.483,0,18.727,3.453,19.602,8.211c0.045,0.246,0.067,0.503,0.067,0.767c0,2.069-1.454,4.532-4.372,5.841
	c0.12,0.316,0.211,0.555,0.355,0.936c3.375-1.483,5.02-4.289,5.02-6.748c0-0.334-0.029-0.66-0.088-0.976
	c-0.824-4.487-8.16-9.03-20.584-9.03C81.863,88.771,70.963,93.129,68.685,94.121z"/>
<path style="opacity:0.2;fill:#545454;" d="M80.471,98.814c-2.271,1.395-3.828,3.465-4.386,5.829v0.001
	c-0.538,2.284-0.054,4.535,1.365,6.335c1.422,1.805,3.599,2.94,6.13,3.196c4.967,0.504,9.857-2.585,11.134-7.029
	c0,0,0.042-0.192,0.087-0.401c1.037-0.346,11.125-3.712,11.125-3.712c1.291-0.43,2.125-1.541,2.125-2.684
	c0-0.254-0.041-0.51-0.128-0.76l-0.647-1.865c-0.477-1.373-2.146-2.062-3.724-1.535c0,0-8.391,2.799-10.741,3.584
	c-1.251-1.256-2.928-2.133-4.84-2.451C85.399,96.894,82.736,97.423,80.471,98.814z"/>
<path style="opacity:0.1;fill:#545454;" d="M80.627,98.271c-2.27,1.615-3.825,3.979-4.382,6.656l0,0
	c-0.538,2.588-0.054,5.119,1.364,7.125c1.42,2.012,3.596,3.254,6.123,3.498c4.965,0.48,9.852-3.091,11.126-8.129
	c0-0.001,0.041-0.218,0.087-0.454c1.035-0.409,11.116-4.385,11.116-4.385c1.289-0.509,2.122-1.778,2.122-3.066
	c0-0.286-0.041-0.573-0.127-0.854l-0.646-2.095c-0.477-1.54-3.414-2.071-4.989-1.45c0,0-7.116,3.092-9.465,4.019
	c-1.249-1.394-2.925-2.354-4.835-2.681C85.552,96.018,82.891,96.662,80.627,98.271z"/>
<path style="opacity:0.6;fill:#545454;" d="M80.49,95.766c-2.281,1.408-3.845,3.631-4.404,6.258l0,0
	c-0.541,2.539-0.054,5.113,1.371,7.248c1.428,2.141,3.613,3.582,6.154,4.056c4.988,0.931,9.899-2.195,11.181-7.118
	c0,0-0.159-0.413-0.113-0.646c1.042-0.314,11.172-3.374,11.172-3.374c1.296-0.391,2.333-1.385,2.333-2.673
	c0-0.286-0.041-0.577-0.128-0.866l-0.56-1.932c-0.479-1.583-2.957-2.347-4.541-1.869c0,0-7.613,2.388-9.975,3.102
	c-1.256-1.508-3.039-2.82-4.959-3.32C85.439,93.959,82.764,94.361,80.49,95.766z"/>
<linearGradient id="XMLID_23_" gradientUnits="userSpaceOnUse" x1="94.7461" y1="98.584" x2="96.3268" y2="103.7215">
	<stop  offset="0.3315" style="stop-color:#F2F2F2"/>
	<stop  offset="0.7247" style="stop-color:#C7C7C7"/>
	<stop  offset="0.9719" style="stop-color:#EDEDED"/>
</linearGradient>
<path style="fill:url(#XMLID_23_);" d="M106.994,98.596c0.318,1.053-0.283,2.176-1.336,2.493l-18.586,5.613
	c-1.054,0.317-2.176-0.284-2.493-1.337l-0.442-1.465c-0.318-1.053,0.283-2.176,1.336-2.493l18.587-5.614
	c1.053-0.317,2.175,0.284,2.492,1.337L106.994,98.596z"/>
<linearGradient id="XMLID_24_" gradientUnits="userSpaceOnUse" x1="92.8516" y1="98.5908" x2="94.9581" y2="104.6101">
	<stop  offset="0.3315" style="stop-color:#CCCCCC"/>
	<stop  offset="0.7247" style="stop-color:#A3A3A3"/>
	<stop  offset="0.9719" style="stop-color:#CCCCCC"/>
</linearGradient>
<path style="fill:url(#XMLID_24_);" d="M92.806,99.123c1.875,0.75,3.444,4.752,3.444,4.752l-2.776,0.924L92.806,99.123z"/>
<radialGradient id="XMLID_25_" cx="85.4873" cy="103.9033" r="8.6008" gradientUnits="userSpaceOnUse">
	<stop  offset="0.3315" style="stop-color:#FFFFFF"/>
	<stop  offset="0.7865" style="stop-color:#D9D9D9"/>
	<stop  offset="1" style="stop-color:#FAFAFA"/>
</radialGradient>
<path style="fill:url(#XMLID_25_);" d="M93.824,105.957c-1.143,4.393-5.556,7.223-10.029,6.387
	c-4.646-0.867-7.743-5.358-6.73-10.112c1.039-4.878,5.921-7.878,10.705-6.633C92.368,96.795,94.995,101.459,93.824,105.957z"/>
<linearGradient id="XMLID_26_" gradientUnits="userSpaceOnUse" x1="83.959" y1="113.4844" x2="114.6147" y2="113.4844">
	<stop  offset="0" style="stop-color:#7D7D7D"/>
	<stop  offset="1" style="stop-color:#545454"/>
</linearGradient>
<path style="opacity:0.6;fill:url(#XMLID_26_);" d="M108.883,102.287L108.883,102.287c0,0-8.603,5.25-9.621,5.871
	c-1.581-1.191-3.493-1.887-5.5-1.914c-5.227-0.073-9.621,4.092-9.797,9.285c-0.085,2.514,0.818,4.895,2.543,6.704
	c1.74,1.825,4.103,2.85,6.654,2.886c5.227,0.072,9.621-4.092,9.797-9.285c0,0-0.002-0.121-0.004-0.265
	c0.889-0.542,10.225-6.239,10.225-6.239c0.925-0.565,1.436-1.555,1.436-2.566c0-0.533-0.141-1.071-0.438-1.558
	c0-0.001-1.172-1.921-1.172-1.921c-0.416-0.682-1.075-1.162-1.855-1.351S109.564,101.871,108.883,102.287z"/>
<linearGradient id="XMLID_27_" gradientUnits="userSpaceOnUse" x1="96.2139" y1="110.9209" x2="105.1404" y2="124.9484" gradientTransform="matrix(0.9844 -0.0575 0 1 0.0591 1.1528)">
	<stop  offset="0" style="stop-color:#7D7D7D"/>
	<stop  offset="1" style="stop-color:#545454"/>
</linearGradient>
<path style="opacity:0.2;fill:url(#XMLID_27_);" d="M108.643,103.391L108.643,103.391c0,0-8.089,5.266-9.064,5.9
	c-1.549-1.105-3.419-1.721-5.385-1.688c-5.168,0.09-9.773,4.357-9.951,9.561c-0.086,2.538,1.035,4.902,2.796,6.645
	c1.772,1.755,4.165,2.656,6.727,2.545c5.19-0.229,9.423-4.609,9.505-9.724c0-0.001-0.004-0.119-0.009-0.259
	c0.847-0.567,9.564-6.412,9.564-6.412c0.847-0.568,1.296-1.523,1.269-2.483c-0.014-0.504-0.158-1.009-0.445-1.46
	c0-0.001-1.136-1.783-1.136-1.783c-0.402-0.633-1.026-1.07-1.757-1.229C110.023,102.843,109.273,102.98,108.643,103.391z"/>
<radialGradient id="XMLID_28_" cx="82.8896" cy="98.2646" r="12.0477" gradientUnits="userSpaceOnUse">
	<stop  offset="0.0056" style="stop-color:#B8B8B8"/>
	<stop  offset="0.9719" style="stop-color:#828282"/>
</radialGradient>
<path style="fill:url(#XMLID_28_);" d="M92.387,105.638c-0.928,3.622-4.566,5.946-8.244,5.237c-3.793-0.732-6.287-4.416-5.446-8.281
	c0.858-3.945,4.81-6.385,8.694-5.4C91.152,98.146,93.333,101.943,92.387,105.638z"/>
<radialGradient id="XMLID_29_" cx="88.8867" cy="108.9727" r="11.3042" gradientUnits="userSpaceOnUse">
	<stop  offset="0.0056" style="stop-color:#B8B8B8"/>
	<stop  offset="0.9719" style="stop-color:#828282"/>
</radialGradient>
<path style="fill:url(#XMLID_29_);" d="M91.945,105.286c-0.895,3.489-4.375,5.735-7.887,5.06c-3.623-0.698-5.998-4.239-5.188-7.961
	c0.828-3.801,4.608-6.157,8.318-5.218C90.781,98.076,92.856,101.729,91.945,105.286z"/>
<linearGradient id="XMLID_30_" gradientUnits="userSpaceOnUse" x1="44" y1="0.125" x2="44" y2="5.6251">
	<stop  offset="0" style="stop-color:#7D7D7D"/>
	<stop  offset="1" style="stop-color:#545454"/>
</linearGradient>
<path style="opacity:0.6;fill:url(#XMLID_30_);" d="M23,0c-2.757,0-5,2.243-5,5v107c0,2.757,2.243,5,5,5h42c2.757,0,5-2.243,5-5V5
	c0-2.757-2.243-5-5-5H23z"/>
<linearGradient id="XMLID_31_" gradientUnits="userSpaceOnUse" x1="44" y1="104.5146" x2="44" y2="105.1493">
	<stop  offset="0" style="stop-color:#7D7D7D"/>
	<stop  offset="1" style="stop-color:#545454"/>
</linearGradient>
<path style="opacity:0.2;fill:url(#XMLID_31_);" d="M23,104.5c-2.757,0-5,2.243-5,5v3.5c0,2.757,2.243,5,5,5h42c2.757,0,5-2.243,5-5
	v-3.5c0-2.757-2.243-5-5-5H23z"/>
<linearGradient id="XMLID_32_" gradientUnits="userSpaceOnUse" x1="44" y1="105.5146" x2="44" y2="106.1493">
	<stop  offset="0" style="stop-color:#7D7D7D"/>
	<stop  offset="1" style="stop-color:#545454"/>
</linearGradient>
<path style="opacity:0.2;fill:url(#XMLID_32_);" d="M23,105.5c-2.757,0-5,2.243-5,5v3.5c0,2.757,2.243,5,5,5h42c2.757,0,5-2.243,5-5
	v-3.5c0-2.757-2.243-5-5-5H23z"/>
<path style="fill:#FFFFFF;" d="M69,112c0,2.2-1.8,4-4,4H23c-2.2,0-4-1.8-4-4V5c0-2.2,1.8-4,4-4h42c2.2,0,4,1.8,4,4V112z"/>
<linearGradient id="XMLID_33_" gradientUnits="userSpaceOnUse" x1="44" y1="18.8423" x2="44" y2="57.5001">
	<stop  offset="0" style="stop-color:#FFFFFF"/>
	<stop  offset="1" style="stop-color:#EEEDEE"/>
</linearGradient>
<path style="fill:url(#XMLID_33_);" d="M68,110.234c0,2.182-1.527,3.766-3.64,3.766H23.64c-2.112,0-3.64-1.484-3.64-3.665V4.965
	C20,2.784,21.728,1,23.84,1h40.32C66.272,1,68,2.784,68,4.965V110.234z"/>
<polygon style="fill:#FFFFFF;" points="65,41 23,41 22,40 66,40 "/>
<path style="fill:#1A1B1A;" d="M66,39.3c0,0.385-0.314,0.7-0.7,0.7H22.7c-0.385,0-0.7-0.315-0.7-0.7V4.7C22,4.315,22.315,4,22.7,4
	h42.6C65.686,4,66,4.315,66,4.7V39.3z"/>
<linearGradient id="XMLID_34_" gradientUnits="userSpaceOnUse" x1="37.0103" y1="-1.5195" x2="44.01" y2="13.4799">
	<stop  offset="0" style="stop-color:#878787"/>
	<stop  offset="1" style="stop-color:#3D3D3D"/>
</linearGradient>
<path style="fill:url(#XMLID_34_);" d="M65,14.324C39.177,14.324,23.039,22,23.039,22V5H65C65,5,65,11.216,65,14.324z"/>
<circle style="fill:#E8E8E8;" cx="44" cy="78" r="19"/>
<circle style="fill:#EEEEF6;" cx="44" cy="80" r="19"/>
<circle style="fill:#B8B8B8;" cx="44" cy="79" r="19"/>
<circle style="fill:#BFBFBF;" cx="44" cy="78" r="7"/>
<linearGradient id="XMLID_35_" gradientUnits="userSpaceOnUse" x1="44" y1="5.7471" x2="44" y2="112.9162">
	<stop  offset="0" style="stop-color:#FFFFFF"/>
	<stop  offset="1" style="stop-color:#EEEDEE"/>
</linearGradient>
<circle style="fill:url(#XMLID_35_);" cx="44" cy="79" r="7"/>
<path style="fill:#F7F6F7;" d="M41.125,65.49H41.12L40.643,64H40v1.967h0.385v-1.618l0.005-0.005l0.54,1.623h0.385l0.54-1.623h0.006
	v1.623h0.385V64h-0.643L41.125,65.49z M43.112,65.104h0.715v-0.31h-0.715V64.31h0.78V64H42.71v1.967h1.188v-0.311h-0.786V65.104z
	 M45.548,65.471h-0.005L44.779,64h-0.494v1.967h0.385v-1.471h0.005l0.767,1.471h0.491V64h-0.385V65.471z M47.598,64v1.135
	c0,0.336-0.109,0.556-0.416,0.556c-0.308,0-0.417-0.22-0.417-0.556V64h-0.401v1.256c0,0.527,0.304,0.744,0.818,0.744
	C47.696,66,48,65.783,48,65.256V64H47.598z"/>
<path style="fill:#EEEDEE;" d="M55,80l2-1.5L55,77V80z M57,78.5V80l2-1.5L57,77V78.5z M59,77v1.5V80h1v-3H59z"/>
<path style="fill:#EEEDEE;" d="M41,94l2-1.5L41,91V94z M44,94h1v-3h-1V94z M46,91v3h1v-3H46z"/>
<path style="fill:#EEEDEE;" d="M31,78.5l2,1.5v-3L31,78.5z M29,78.5l2,1.5v-1.5V77L29,78.5z M28,77v3h1v-1.5V77H28z"/>
<path style="fill:#FFFFFF;" d="M102.246,115.682c0,4.595-3.887,8.318-8.685,8.318c-4.796,0-8.483-3.724-8.483-8.318
	c0-4.596,3.688-8.318,8.483-8.318C98.359,107.363,102.246,111.086,102.246,115.682z"/>
<radialGradient id="XMLID_36_" cx="90.2627" cy="128.8555" r="16.2718" gradientTransform="matrix(0.9886 0 0 0.9066 0.04 -6.6554)" gradientUnits="userSpaceOnUse">
	<stop  offset="0.3315" style="stop-color:#FFFFFF"/>
	<stop  offset="0.7865" style="stop-color:#D9D9D9"/>
	<stop  offset="1" style="stop-color:#EDEDED"/>
</radialGradient>
<path style="fill:url(#XMLID_36_);" d="M102.246,115.949c0,4.447-3.887,8.051-8.685,8.051c-4.796,0-8.483-3.604-8.483-8.051
	c0-4.448,3.688-8.053,8.483-8.053C98.359,107.896,102.246,111.501,102.246,115.949z"/>
<linearGradient id="XMLID_37_" gradientUnits="userSpaceOnUse" x1="101.6426" y1="107.3213" x2="105.108" y2="112.767" gradientTransform="matrix(1.1036 -0.0632 -0.0632 1.0386 -4.3723 3.1271)">
	<stop  offset="0.3315" style="stop-color:#F2F2F2"/>
	<stop  offset="0.7247" style="stop-color:#D1D1D1"/>
	<stop  offset="0.9719" style="stop-color:#EDEDED"/>
</linearGradient>
<path style="fill:url(#XMLID_37_);" d="M113.324,105.727c0.572,0.939,0.273,2.176-0.666,2.75L96.086,118.59
	c-0.939,0.573-2.176,0.273-2.75-0.665l-1.171-1.921c-0.573-0.938-0.274-2.176,0.665-2.748l16.573-10.115
	c0.938-0.572,2.176-0.273,2.749,0.666L113.324,105.727z"/>
<radialGradient id="XMLID_38_" cx="89.7227" cy="104.3047" r="20.1327" gradientUnits="userSpaceOnUse">
	<stop  offset="0.3315" style="stop-color:#D6D6D6"/>
	<stop  offset="0.7865" style="stop-color:#B0B0B0"/>
	<stop  offset="1" style="stop-color:#DEDEDE"/>
</radialGradient>
<path style="fill:url(#XMLID_38_);" d="M91.875,115.25c-0.25,1.25,1.336,4.645,3.5,4.875c2.861,0.303,6.136-1.403,6.5-2.375
	c0.25-0.666,1.375-6.5-2.625-7.875C97.625,110.875,92.391,112.674,91.875,115.25z"/>
<linearGradient id="XMLID_39_" gradientUnits="userSpaceOnUse" x1="101.6426" y1="107.3213" x2="105.108" y2="112.767" gradientTransform="matrix(1.1036 -0.0632 -0.0632 1.0386 -4.3723 3.1271)">
	<stop  offset="0.3315" style="stop-color:#F2F2F2"/>
	<stop  offset="0.7247" style="stop-color:#C7C7C7"/>
	<stop  offset="0.9719" style="stop-color:#EDEDED"/>
</linearGradient>
<path style="fill:url(#XMLID_39_);" d="M113.324,105.727c0.572,0.939,0.273,2.176-0.666,2.75L96.086,118.59
	c-0.939,0.573-2.176,0.273-2.75-0.665l-1.171-1.921c-0.573-0.938-0.274-2.176,0.665-2.748l16.573-10.115
	c0.938-0.572,2.176-0.273,2.749,0.666L113.324,105.727z"/>
<radialGradient id="XMLID_40_" cx="89.7305" cy="108.3779" r="13.7747" gradientUnits="userSpaceOnUse">
	<stop  offset="0.0056" style="stop-color:#CCCCCC"/>
	<stop  offset="0.9719" style="stop-color:#9E9E9E"/>
</radialGradient>
<path style="fill:url(#XMLID_40_);" d="M88.52,105.141c0.062-0.246,0.105-0.5,0.105-0.766c0-1.008-0.485-1.895-1.227-2.467
	l0.889-1.371l-0.63-0.406l-0.899,1.387c-0.385-0.17-0.81-0.268-1.258-0.268c-0.99,0-1.861,0.469-2.434,1.187l-1.58-0.747
	l-0.318,0.68l1.497,0.707c-0.183,0.396-0.29,0.834-0.29,1.299c0,0.909,0.395,1.721,1.014,2.291l-0.787,1.223l0.631,0.406l0.77-1.193
	c0.446,0.246,0.952,0.398,1.498,0.398c1.193,0,2.219-0.677,2.744-1.66l1.377,0.518l0.264-0.702L88.52,105.141z M85.5,106.775
	c-1.312,0-2.375-1.064-2.375-2.375c0-1.312,1.063-2.375,2.375-2.375s2.375,1.062,2.375,2.375
	C87.875,105.711,86.812,106.775,85.5,106.775z"/>
</svg>
