<?xml version="1.0" encoding="UTF-8" standalone="no"?>
<!-- Created with Inkscape (http://www.inkscape.org/) -->
<svg
   xmlns:svg="http://www.w3.org/2000/svg"
   xmlns="http://www.w3.org/2000/svg"
   version="1.0"
   width="100%"
   height="73.449997"
   viewBox="0 0 73.45 486.1"
   id="svg2481"
   xml:space="preserve"><defs
   id="defs2515" />

<g
   id="Layer_5">
</g>
<g
   id="Layer_4">
</g>
<g
   id="Layer_3">
</g>
<g
   transform="translate(-206.475,0)"
   id="g2521"
   style="fill:#c0c0c0;fill-opacity:1"><g
     id="Layer_1"
     style="fill:#c0c0c0;fill-opacity:1">
	<circle
   cx="243.2"
   cy="243.05"
   r="125"
   id="circle2484"
   style="fill:#c0c0c0;fill-opacity:1" />
</g><g
     id="Layer_2"
     style="fill:#c0c0c0;fill-opacity:1">
	<g
   id="g2490"
   style="fill:#c0c0c0;fill-opacity:1">
		<g
   id="g2492"
   style="fill:#c0c0c0;fill-opacity:1">
			<path
   d="M 398.4,215.3 C 390.9,215.3 384.4,218.2 378.8,223.8 C 373.1,229.4 370.4,236 370.4,243.4 C 370.4,250.9 373.1,257.5 378.8,263.1 C 384.4,268.7 390.9,271.5 398.4,271.5 L 458.3,271.5 C 465.8,271.5 472.3,268.699 477.9,263.1 C 483.601,257.5 486.4,250.9 486.4,243.4 C 486.4,236 483.6,229.4 477.9,223.8 C 472.3,218.2 465.8,215.3 458.3,215.3 L 398.4,215.3 L 398.4,215.3 z"
   id="path2494"
   style="fill:#c0c0c0;fill-opacity:1" />
		</g>
		<path
   d="M 116,243.4 C 116,235.9 113.2,229.4 107.5,223.7 C 102,218.1 95.4,215.4 87.9,215.4 L 28.1,215.4 C 20.6,215.4 14.1,218.1 8.4,223.7 C 2.8,229.4 0,235.9 0,243.4 C 0,250.8 2.8,257.4 8.4,263.101 C 14.1,268.701 20.6,271.4 28.1,271.4 L 87.899,271.4 C 95.399,271.4 102,268.7 107.499,263.101 C 113.2,257.4 116,250.8 116,243.4 z"
   id="path2496"
   style="fill:#c0c0c0;fill-opacity:1" />
		<path
   d="M 271.016,398.2 C 271.016,390.7 268.216,384.1 262.616,378.6 C 257.016,372.9 250.416,370.1 243.016,370.1 C 235.516,370.1 228.916,372.9 223.316,378.6 C 217.716,384.1 214.916,390.7 214.916,398.2 L 214.916,458 C 214.916,465.5 217.716,472 223.316,477.7 C 228.916,483.3 235.516,486.1 243.016,486.1 C 250.416,486.1 257.016,483.3 262.616,477.7 C 268.216,472 271.016,465.5 271.016,458 L 271.016,398.2 z"
   id="path2498"
   style="fill:#c0c0c0;fill-opacity:1" />
		<path
   d="M 223.316,8.3 C 217.816,14 214.916,20.5 214.916,28 L 214.916,87.9 C 214.916,95.3 217.816,101.9 223.316,107.5 C 229.016,113.1 235.516,115.9 243.016,115.9 C 250.516,115.9 257.016,113.1 262.716,107.5 C 268.216,101.9 271.016,95.3 271.016,87.9 L 271.016,28 C 271.016,20.5 268.216,14 262.716,8.3 C 257.016,2.7 250.516,0 243.016,0 C 235.516,0 229.016,2.7 223.316,8.3 z"
   id="path2500"
   style="fill:#c0c0c0;fill-opacity:1" />
	</g>
	<g
   id="g2502"
   style="fill:#c0c0c0;fill-opacity:1">
		<g
   id="g2504"
   style="fill:#c0c0c0;fill-opacity:1">
			<path
   d="M 372.772,333.129 C 367.469,327.826 360.821,325.28 352.902,325.28 C 344.912,325.21 338.336,327.967 333.103,333.199 C 327.8,338.502 325.042,345.078 325.112,353.069 C 325.112,360.988 327.728,367.564 333.031,372.867 L 375.386,415.223 C 380.69,420.526 387.266,423.142 395.185,423.142 C 403.176,423.213 409.823,420.526 415.126,415.223 C 420.358,409.99 423.046,403.344 422.975,395.353 C 422.975,387.434 420.43,380.787 415.126,375.483 L 372.772,333.129 z"
   id="path2506"
   style="fill:#c0c0c0;fill-opacity:1" />
		</g>
		<path
   d="M 153.216,153.312 C 158.519,148.009 161.135,141.433 161.135,133.372 C 161.205,125.523 158.448,118.947 153.145,113.643 L 110.859,71.358 C 105.556,66.054 99.051,63.368 91.06,63.297 C 83.071,63.367 76.494,65.984 71.191,71.287 C 65.959,76.519 63.272,83.166 63.2,91.157 C 63.271,99.147 65.959,105.653 71.262,110.956 L 113.546,153.24 C 118.85,158.544 125.426,161.302 133.274,161.231 C 141.336,161.232 147.983,158.544 153.216,153.312 z"
   id="path2508"
   style="fill:#c0c0c0;fill-opacity:1" />
		<path
   d="M 153.368,372.385 C 158.671,367.082 161.358,360.435 161.288,352.586 C 161.359,344.595 158.671,337.949 153.439,332.716 C 148.136,327.413 141.489,324.726 133.499,324.797 C 125.65,324.726 119.003,327.413 113.7,332.716 L 71.415,375.001 C 66.112,380.304 63.495,386.88 63.425,394.871 C 63.425,402.791 66.112,409.437 71.415,414.741 C 76.648,419.974 83.294,422.661 91.214,422.661 C 99.204,422.59 105.78,419.974 111.084,414.67 L 153.368,372.385 z"
   id="path2510"
   style="fill:#c0c0c0;fill-opacity:1" />
		<path
   d="M 395.34,62.956 C 387.421,63.097 380.774,65.643 375.47,70.946 L 333.114,113.302 C 327.882,118.535 325.265,125.252 325.195,133.101 C 325.265,141.091 327.882,147.667 333.185,152.97 C 338.488,158.273 345.064,160.89 353.055,160.961 C 360.904,160.89 367.55,158.203 372.783,152.97 L 415.138,110.615 C 420.442,105.312 423.058,98.736 423.199,90.816 C 423.128,82.826 420.442,76.32 415.138,71.017 C 409.836,65.713 403.33,63.026 395.34,62.956 z"
   id="path2512"
   style="fill:#c0c0c0;fill-opacity:1" />
	</g>
</g></g>
</svg>