<?xml version="1.0" encoding="UTF-8" standalone="no"?>
<!-- Created with Inkscape (http://www.inkscape.org/) -->
<svg
   xmlns:svg="http://www.w3.org/2000/svg"
   xmlns="http://www.w3.org/2000/svg"
   version="1.0"
   width="73.410004"
   height="73.410004"
   viewBox="0 0 85.769 71.725"
   id="Layer_1"
   xml:space="preserve"><defs
   id="defs14" />
<path
   d="M 65.545441,-6.3271768 C 63.125887,-7.5118128 60.259833,-7.2161568 58.129903,-5.5669178 L 34.833399,12.51638 L 23.318898,12.520403 C 21.464509,12.520403 19.652359,13.270606 18.341013,14.583963 C 17.031679,15.893297 16.279464,17.705449 16.279464,19.559837 L 16.279464,52.166493 C 16.279464,56.05427 19.431119,59.209948 23.318898,59.209948 C 23.399349,59.209948 23.479799,59.209948 23.558239,59.205925 L 34.829377,59.205925 L 58.131914,77.293254 C 59.392978,78.270724 60.913494,78.771534 62.446081,78.771534 C 63.499984,78.771534 64.561932,78.534194 65.547454,78.053514 C 67.962985,76.868864 69.489536,74.423174 69.489536,71.728073 L 69.489536,-0.0037537832 C 69.487525,-2.7008628 67.964996,-5.1425408 65.545441,-6.3271768 z"
   id="path3"
   style="fill:#808080;fill-opacity:0.50196078" />

</svg>