<?xml version="1.0" encoding="UTF-8" standalone="no"?>
<!-- Created with Inkscape (http://www.inkscape.org/) -->
<svg
   xmlns:svg="http://www.w3.org/2000/svg"
   xmlns="http://www.w3.org/2000/svg"
   version="1.0"
   width="45.514416"
   height="73.410004"
   viewBox="0 0 85.769 71.725"
   id="Layer_1"
   xml:space="preserve"><defs
   id="defs14" />
<path
   d="M 79.456574,-32.14213 C 75.554297,-34.052721 70.9319,-33.575884 67.49673,-30.915978 L 29.92394,-1.7510882 L 11.353256,-1.7446001 C 8.3624839,-1.7446001 5.4398315,-0.53466615 3.3248821,1.5835271 C 1.2131765,3.6952323 1.5777218e-30,6.6178855 1.5777218e-30,9.6086575 L 1.5777218e-30,62.196941 C 1.5777218e-30,68.46718 5.0830151,73.556683 11.353256,73.556683 C 11.483008,73.556683 11.612759,73.556683 11.739267,73.550195 L 29.917452,73.550195 L 67.499974,102.72158 C 69.533828,104.29806 71.986131,105.10577 74.457898,105.10577 C 76.157641,105.10577 77.870362,104.72299 79.459818,103.94774 C 83.355607,102.03714 85.817641,98.092692 85.817641,93.746017 L 85.817641,-21.943662 C 85.814397,-26.293581 83.358851,-30.231539 79.456574,-32.14213 z"
   id="path3"
   style="fill:#7f7f7f;fill-opacity:1" />

</svg>